# xmcd
#
# Track frame offsets:
#	150
#	15381
#	33218
#	51561
#	75298
#	89721
#	100487
#	109920
#
# Disc length: 1508 seconds
# Revision: 0
# Processed by: cddbd v1.5.2PL0 Copyright (c) Steve Scherf et al.
# Submitted via: dBpowerAMP V12.0
#
DISCID=5d05e208
DTITLE=Chip Taylor - The Little Prayers Trilogy - CD2 - Love and Pain
DYEAR=2014
DGENRE=Country
TTITLE0=Hold It Right There
TTITLE1=Bardot
TTITLE2=Track 224
TTITLE3=The Same Way
TTITLE4=Nothin' Comin' Out Of Me That I Like
TTITLE5=Girl and Boy Thing
TTITLE6=Joan's Song
TTITLE7=Reprise (Joan's Song)
EXTD=
EXTT0=
EXTT1=
EXTT2=
EXTT3=
EXTT4=
EXTT5=
EXTT6=
EXTT7=
PLAYORDER=
